# xmcd
#
# Track frame offsets:
#	150
#	22527
#	56563
#	69732
#	87990
#	105670
#	116750
#	138722
#	170708
#	189835
#	212208
#	236081
#	267254
#	290773
#	307641
#
# Disc length: 4412 seconds
#
# Revision: 0
# Processed by: cddbd v1.5PL3 Copyright (c) Steve Scherf et al.
# Submitted via: dBpowerAMP V4.0
#
DISCID=d8113a0f
DTITLE=Allman Brothers - Classic
DYEAR=1900
DGENRE=Blues
TTITLE0=Ramblin Man
TTITLE1=Pegasus
TTITLE2=Midnight Rider
TTITLE3=Revival
TTITLE4=Mellssa
TTITLE5=Don't Want You No More
TTITLE6=It's Not My Cross To Bear
TTITLE7=Jessica
TTITLE8=Statesborol Blues
TTITLE9=Hoochie Coochie Man
TTITLE10=Whipping Post
TTITLE11=In Memory Of Elizabeth Reed
TTITLE12=Blue Sky
TTITLE13=Crazy Love
TTITLE14=Southbond
EXTD=
EXTT0=
EXTT1=
EXTT2=
EXTT3=
EXTT4=
EXTT5=
EXTT6=
EXTT7=
EXTT8=
EXTT9=
EXTT10=
EXTT11=
EXTT12=
EXTT13=
EXTT14=
PLAYORDER=
